<svg xmlns="http://www.w3.org/2000/svg" viewBox="0 0 100 100">
  <!-- Book base -->
  <rect x="10" y="60" width="80" height="12" rx="3" fill="#B8922A"/>
  <rect x="15" y="55" width="70" height="10" rx="2" fill="#C9A84C"/>
  <!-- Pages -->
  <ellipse cx="50" cy="60" rx="35" ry="5" fill="#D4AF37"/>
  <!-- Flame -->
  <path d="M50 55 C45 45, 35 38, 40 25 C42 18, 48 15, 50 10 C52 15, 55 20, 53 28 C58 22, 60 16, 58 10 C65 18, 67 30, 62 40 C60 45, 57 50, 55 55 Z" fill="#D4AF37"/>
  <path d="M50 52 C47 44, 41 39, 44 30 C46 24, 49 21, 50 17 C51 21, 53 25, 51 31 C55 26, 56 22, 55 18 C60 24, 61 33, 57 40 C55 44, 53 49, 52 52 Z" fill="#F5D77E"/>
  <!-- Orb at base of flame -->
  <circle cx="50" cy="56" r="4" fill="#B8922A"/>
  <circle cx="50" cy="56" r="2.5" fill="#D4AF37"/>
</svg>
